<svg xmlns="http://www.w3.org/2000/svg" width="640" height="640" viewBox="0 0 640 640" role="img" aria-label="Flux, the UltraBuild forge-dragon mascot">
  <defs>
    <radialGradient id="halo" cx="50%" cy="46%" r="58%"><stop stop-color="#172554"/><stop offset=".55" stop-color="#0f172a"/><stop offset="1" stop-color="#060712"/></radialGradient>
    <linearGradient id="flame" x1="0" x2="1" y1="0" y2="1"><stop stop-color="#00e5ff"/><stop offset=".52" stop-color="#7c3aed"/><stop offset="1" stop-color="#ff2bd6"/></linearGradient>
    <filter id="glow" x="-30%" y="-30%" width="160%" height="160%"><feGaussianBlur stdDeviation="8" result="b"/><feMerge><feMergeNode in="b"/><feMergeNode in="SourceGraphic"/></feMerge></filter>
  </defs>
  <rect width="640" height="640" rx="128" fill="url(#halo)"/>
  <g opacity=".22" stroke="#67e8f9"><path d="M68 119h504M68 214h504M68 309h504M68 404h504M162 70v500M257 70v500M352 70v500M447 70v500"/></g>
  <circle cx="414" cy="260" r="155" fill="none" stroke="url(#flame)" stroke-width="10" opacity=".8" filter="url(#glow)"/>
  <path d="M116 458c49-103 101-146 179-153 13-63 59-105 136-126-10 39-8 71 7 94 36 9 66 30 89 63-48 2-85 17-113 42 2 55-27 97-86 124-71 32-144 18-212-44Z" fill="#111827" stroke="url(#flame)" stroke-width="12" filter="url(#glow)"/>
  <path d="M295 306c30 21 55 22 78 5-3 38-24 64-61 78-6-33-11-61-17-83Z" fill="#00e5ff" opacity=".88"/>
  <path d="M406 182 476 108l-10 98" fill="none" stroke="#ff2bd6" stroke-width="15" stroke-linecap="round" stroke-linejoin="round"/>
  <circle cx="404" cy="278" r="13" fill="#f8fafc"/>
  <circle cx="408" cy="276" r="5" fill="#060712"/>
  <path d="M450 302c47 5 74 25 80 61-45-20-78-18-101 6" fill="none" stroke="#00e5ff" stroke-width="11" stroke-linecap="round"/>
  <path d="M154 453 80 527" stroke="#a3e635" stroke-width="18" stroke-linecap="round"/>
  <rect x="58" y="509" width="116" height="47" rx="10" fill="#111827" stroke="#a3e635" stroke-width="9" transform="rotate(-10 116 532)"/>
  <text x="116" y="541" text-anchor="middle" font-family="ui-monospace,SFMono-Regular,Menlo,Consolas,monospace" font-size="26" font-weight="700" fill="#a3e635">$_</text>
  <text x="320" y="592" text-anchor="middle" font-family="Inter,Segoe UI,Arial,sans-serif" font-size="24" font-weight="800" fill="#f8fafc">FLUX</text>
</svg>
