<svg xmlns="http://www.w3.org/2000/svg" width="1200" height="260" viewBox="0 0 1200 260" role="img" aria-label="UltraBuild logo">
  <defs>
    <linearGradient id="forge" x1="0" x2="1" y1="0" y2="1"><stop stop-color="#00e5ff"/><stop offset="0.46" stop-color="#7c3aed"/><stop offset="1" stop-color="#ff2bd6"/></linearGradient>
    <filter id="glow" x="-30%" y="-30%" width="160%" height="160%"><feGaussianBlur stdDeviation="5" result="b"/><feMerge><feMergeNode in="b"/><feMergeNode in="SourceGraphic"/></feMerge></filter>
  </defs>
  <rect width="1200" height="260" rx="44" fill="#060712"/>
  <g transform="translate(70 38)" filter="url(#glow)">
    <path d="M45 150c29-61 61-87 108-91 8-38 36-63 82-75-6 23-5 42 4 56 22 6 40 18 54 38-29 1-52 10-69 25 1 33-17 58-53 74-42 19-86 11-126-27Z" fill="#0f172a" stroke="url(#forge)" stroke-width="8"/>
    <path d="M157 61c19 13 34 14 48 3-1 24-15 40-38 49-4-21-7-38-10-52Z" fill="#00e5ff" opacity=".9"/>
    <circle cx="214" cy="85" r="8" fill="#f8fafc"/>
    <path d="M40 150 12 178" stroke="#a3e635" stroke-width="10" stroke-linecap="round"/>
    <rect x="0" y="170" width="64" height="28" rx="7" fill="#111827" stroke="#a3e635" stroke-width="5" transform="rotate(-10 32 184)"/>
  </g>
  <text x="355" y="118" font-family="Inter,Segoe UI,Arial,sans-serif" font-size="76" font-weight="900" fill="#f8fafc" letter-spacing="-3">UltraBuild</text>
  <text x="360" y="165" font-family="ui-monospace,SFMono-Regular,Menlo,Consolas,monospace" font-size="24" fill="#67e8f9">plan ▸ build ▸ review ▸ debug ▸ verify ▸ ship</text>
  <path d="M360 188h705" stroke="url(#forge)" stroke-width="6" stroke-linecap="round"/>
</svg>
