<svg xmlns="http://www.w3.org/2000/svg" width="1600" height="560" viewBox="0 0 1600 560" role="img" aria-label="UltraBuild banner">
  <defs>
    <linearGradient id="bg" x1="0" x2="1" y1="0" y2="1"><stop stop-color="#060712"/><stop offset=".52" stop-color="#101033"/><stop offset="1" stop-color="#240826"/></linearGradient>
    <linearGradient id="neon" x1="0" x2="1"><stop stop-color="#00e5ff"/><stop offset=".5" stop-color="#7c3aed"/><stop offset="1" stop-color="#ff2bd6"/></linearGradient>
    <filter id="glow" x="-20%" y="-20%" width="140%" height="140%"><feGaussianBlur stdDeviation="6" result="b"/><feMerge><feMergeNode in="b"/><feMergeNode in="SourceGraphic"/></feMerge></filter>
  </defs>
  <rect width="1600" height="560" rx="56" fill="url(#bg)"/>
  <g opacity=".18" stroke="#67e8f9"><path d="M0 90h1600M0 180h1600M0 270h1600M0 360h1600M0 450h1600M160 0v560M320 0v560M480 0v560M640 0v560M800 0v560M960 0v560M1120 0v560M1280 0v560M1440 0v560"/></g>
  <g transform="translate(1070 82)">
    <circle cx="220" cy="210" r="175" fill="none" stroke="url(#neon)" stroke-width="11" filter="url(#glow)"/>
    <path d="M62 310c47-99 97-141 172-147 12-60 57-101 131-121-10 38-8 68 6 91 35 9 64 29 86 61-46 2-82 16-109 40 2 53-26 93-83 119-68 31-139 17-203-43Z" fill="#111827" stroke="url(#neon)" stroke-width="12" filter="url(#glow)"/>
    <path d="M237 165c29 20 53 21 75 5-3 37-23 62-59 75-6-32-11-58-16-80Z" fill="#00e5ff" opacity=".9"/>
    <circle cx="342" cy="236" r="12" fill="#fff"/>
    <path d="M98 308 42 365" stroke="#a3e635" stroke-width="16" stroke-linecap="round"/>
    <rect x="24" y="350" width="92" height="39" rx="9" fill="#111827" stroke="#a3e635" stroke-width="8" transform="rotate(-10 70 370)"/>
  </g>
  <text x="92" y="168" font-family="Inter,Segoe UI,Arial,sans-serif" font-size="104" font-weight="900" letter-spacing="-4" fill="#f8fafc" filter="url(#glow)">UltraBuild</text>
  <text x="98" y="230" font-family="Inter,Segoe UI,Arial,sans-serif" font-size="34" font-weight="700" fill="#c4b5fd">A sick, standalone TypeScript agentic harness.</text>
  <text x="100" y="282" font-family="Inter,Segoe UI,Arial,sans-serif" font-size="28" fill="#f8fafc">Modes · skills · tools · workers · providers · Vibe Island</text>
  <rect x="98" y="325" width="760" height="58" rx="29" fill="#0f172a" stroke="url(#neon)" stroke-width="3"/>
  <text x="130" y="363" font-family="ui-monospace,SFMono-Regular,Menlo,Consolas,monospace" font-size="25" fill="#67e8f9">$ ultrabuild --mode build --provider openai</text>
  <g font-family="ui-monospace,SFMono-Regular,Menlo,Consolas,monospace" font-size="20" font-weight="700">
    <rect x="98" y="414" width="132" height="38" rx="19" fill="#0f172a" stroke="#00e5ff"/><text x="164" y="439" text-anchor="middle" fill="#67e8f9">chat</text>
    <rect x="248" y="414" width="132" height="38" rx="19" fill="#0f172a" stroke="#7c3aed"/><text x="314" y="439" text-anchor="middle" fill="#c4b5fd">build</text>
    <rect x="398" y="414" width="132" height="38" rx="19" fill="#0f172a" stroke="#ff2bd6"/><text x="464" y="439" text-anchor="middle" fill="#f0abfc">review</text>
    <rect x="548" y="414" width="132" height="38" rx="19" fill="#0f172a" stroke="#a3e635"/><text x="614" y="439" text-anchor="middle" fill="#bef264">verify</text>
  </g>
</svg>
